<?xml version="1.0" standalone="no"?>
<!DOCTYPE svg PUBLIC "-//W3C//DTD SVG 20010904//EN"
 "http://www.w3.org/TR/2001/REC-SVG-20010904/DTD/svg10.dtd">
<svg version="1.0" xmlns="http://www.w3.org/2000/svg"
 width="897.000000pt" height="897.000000pt" viewBox="0 0 897.000000 897.000000"
 preserveAspectRatio="xMidYMid meet">
<metadata>
Created by potrace 1.14, written by Peter Selinger 2001-2017
</metadata>
<g transform="translate(0.000000,897.000000) scale(0.100000,-0.100000)"
fill="#000000" stroke="none">
<path d="M4620 8959 c-589 -27 -1074 -236 -1476 -634 -50 -49 -106 -108 -125
-130 -19 -22 -80 -74 -134 -115 -193 -146 -395 -367 -528 -577 -61 -95 -131
-233 -119 -233 4 0 2 -4 -5 -8 -13 -8 -44 -86 -46 -114 -1 -10 -5 -18 -9 -18
-4 0 -8 -9 -8 -19 0 -11 -5 -23 -11 -26 -5 -4 -8 -12 -6 -18 2 -7 0 -23 -6
-37 -22 -58 -51 -203 -52 -262 0 -21 -3 -38 -6 -38 -3 0 -6 -30 -6 -67 0 -38
-3 -75 -7 -83 -11 -27 9 -351 24 -390 1 -3 2 -13 1 -22 -1 -10 1 -18 6 -18 4
0 9 -12 10 -27 1 -16 3 -39 6 -53 2 -14 5 -33 6 -43 0 -10 5 -16 10 -13 5 4 7
-4 3 -16 -4 -16 -2 -19 8 -13 9 6 11 4 5 -4 -8 -15 14 -101 26 -101 5 0 5 -7
2 -17 -4 -10 -2 -14 4 -10 7 5 9 0 6 -13 -3 -12 0 -20 8 -20 7 0 10 -3 6 -6
-3 -4 0 -19 9 -35 8 -16 12 -29 10 -29 -3 0 6 -22 19 -49 14 -27 25 -54 25
-60 0 -6 4 -11 10 -11 5 0 9 -3 9 -7 -3 -21 2 -33 13 -27 7 4 8 3 4 -4 -4 -6
5 -33 20 -59 15 -27 36 -65 47 -85 12 -21 25 -38 29 -38 5 0 7 -4 3 -9 -3 -6
3 -15 14 -21 12 -6 18 -16 15 -25 -4 -8 1 -18 10 -21 9 -3 13 -10 10 -15 -3
-5 2 -12 10 -15 9 -3 13 -10 10 -15 -3 -5 -1 -9 4 -9 5 0 14 -12 20 -26 7 -14
17 -22 22 -19 5 3 8 0 5 -7 -3 -7 8 -28 25 -46 16 -18 30 -36 30 -38 0 -15 74
-93 83 -87 5 3 7 2 4 -4 -8 -13 22 -55 34 -47 5 3 8 1 7 -5 -4 -15 103 -131
115 -124 5 3 7 1 4 -4 -8 -12 131 -159 145 -155 5 1 7 -1 4 -6 -7 -12 40 -53
50 -44 4 4 4 2 1 -4 -7 -12 28 -46 38 -36 4 4 5 2 3 -4 -4 -16 142 -155 155
-147 5 3 7 1 4 -4 -8 -13 27 -46 38 -36 4 5 5 3 2 -3 -8 -14 17 -37 28 -26 5
4 5 2 2 -5 -9 -14 66 -76 79 -65 5 4 6 3 2 -2 -9 -10 93 -107 104 -99 5 2 7
-1 6 -9 -2 -7 3 -12 10 -11 6 2 12 -2 12 -8 0 -6 7 -17 15 -25 8 -9 15 -12 15
-9 0 4 18 -12 39 -34 22 -23 44 -41 50 -41 6 0 11 -4 11 -10 0 -5 7 -10 16
-10 8 0 13 -4 10 -9 -3 -5 4 -16 17 -24 12 -8 36 -26 52 -41 51 -45 59 -51 67
-49 5 2 7 0 5 -5 -1 -4 2 -9 8 -12 5 -3 26 -22 46 -42 21 -21 40 -38 43 -38 3
0 22 -16 43 -35 20 -19 40 -32 45 -29 5 3 7 2 6 -3 -2 -4 0 -9 4 -11 4 -2 28
-23 54 -47 26 -25 51 -42 56 -39 4 3 7 0 6 -8 -2 -8 4 -12 16 -10 10 2 15 -1
12 -6 -5 -9 61 -68 78 -70 5 0 13 -7 18 -16 5 -9 14 -14 19 -10 5 3 8 1 7 -4
-4 -13 103 -102 115 -95 6 3 7 1 4 -4 -4 -6 5 -19 19 -29 14 -11 38 -30 54
-44 15 -14 51 -45 80 -70 29 -25 75 -66 103 -92 28 -26 54 -45 59 -42 5 3 7 2
6 -3 -4 -11 284 -299 295 -295 5 1 6 -2 3 -6 -7 -12 33 -58 46 -54 5 1 7 -2 4
-6 -3 -5 5 -21 18 -35 13 -14 21 -28 18 -31 -3 -3 0 -6 6 -6 7 0 12 -7 12 -15
0 -9 7 -18 15 -21 8 -4 12 -10 9 -15 -3 -5 -1 -9 4 -9 4 0 14 -16 22 -35 8
-19 17 -35 22 -35 4 0 7 -3 7 -8 -3 -19 2 -33 11 -27 5 3 7 0 4 -8 -3 -8 1
-21 8 -28 7 -8 15 -23 16 -34 2 -11 7 -22 10 -25 4 -3 8 -16 10 -30 1 -13 6
-27 10 -30 4 -3 8 -23 10 -45 1 -22 5 -47 9 -55 12 -31 6 -162 -12 -238 -3
-12 -7 -31 -10 -43 -13 -59 -30 -79 -85 -100 -140 -53 -376 -75 -526 -48 -401
71 -763 376 -1088 916 -21 35 -43 63 -50 63 -7 0 -32 -13 -57 -29 -76 -49
-229 -141 -234 -141 -3 0 -35 -19 -72 -43 -76 -49 -260 -159 -283 -170 -8 -4
-56 -33 -107 -65 -51 -31 -156 -95 -233 -142 -137 -82 -179 -107 -268 -160
-27 -16 -41 -31 -39 -40 3 -11 -73 -62 -260 -174 -189 -114 -262 -163 -259
-173 4 -8 6 -17 6 -19 0 -3 4 -3 9 0 5 3 8 -2 7 -12 0 -9 5 -16 12 -14 8 1 11
-1 8 -6 -7 -11 16 -62 27 -62 5 0 6 -4 2 -9 -3 -5 2 -17 11 -25 8 -9 12 -16 8
-16 -4 0 -1 -8 7 -17 8 -10 23 -35 33 -55 10 -21 23 -35 27 -32 5 3 6 -2 3
-10 -3 -9 -1 -16 5 -16 6 0 11 -7 11 -16 0 -8 4 -12 10 -9 5 3 7 0 4 -8 -3 -8
1 -21 8 -28 8 -8 17 -22 21 -32 4 -11 12 -15 19 -11 7 4 10 4 6 -1 -10 -11 31
-87 43 -80 5 4 9 3 8 -2 -3 -20 2 -34 11 -28 6 3 7 -1 4 -9 -3 -9 -2 -16 3
-16 6 0 15 -12 21 -26 7 -15 17 -22 24 -18 6 4 8 3 5 -3 -6 -10 28 -64 45 -71
5 -2 8 -8 8 -14 0 -6 10 -19 22 -29 11 -11 17 -19 12 -19 -5 0 -2 -6 6 -13 9
-7 26 -27 38 -44 13 -18 28 -32 35 -30 7 1 11 -4 10 -10 -4 -16 28 -54 39 -47
5 3 7 0 6 -8 -2 -7 3 -12 10 -10 6 1 11 -2 10 -7 -4 -14 53 -82 63 -75 5 3 8
0 7 -8 -2 -7 3 -12 10 -10 6 1 12 -4 12 -10 0 -7 23 -33 51 -58 27 -25 70 -64
96 -87 25 -24 50 -40 56 -36 5 3 7 1 4 -4 -4 -6 6 -19 21 -29 15 -10 32 -22
38 -28 6 -6 22 -18 34 -26 12 -8 29 -21 36 -28 8 -7 14 -10 14 -5 0 4 5 0 11
-10 5 -9 17 -17 24 -17 8 0 15 -4 15 -8 0 -10 60 -45 60 -35 0 4 5 0 11 -10 6
-9 14 -15 20 -12 5 4 9 2 9 -3 0 -5 12 -15 28 -23 15 -7 48 -26 74 -41 25 -14
49 -24 52 -21 3 4 6 1 6 -6 0 -7 4 -10 9 -7 5 4 11 1 13 -4 2 -6 13 -12 26
-13 12 0 22 -4 22 -8 0 -5 75 -38 170 -74 90 -34 125 -47 130 -47 6 -1 9 -2
61 -18 20 -6 47 -13 60 -16 13 -3 35 -8 49 -11 14 -3 32 -7 40 -8 8 -1 22 -5
30 -8 8 -3 29 -8 45 -10 17 -3 58 -10 92 -16 34 -6 65 -11 70 -10 4 1 10 0 13
-1 5 -3 11 -3 130 -15 97 -10 490 -11 600 -1 271 23 530 82 758 172 326 128
579 299 839 565 44 46 127 117 182 158 401 294 695 724 816 1196 61 237 70
319 70 625 0 243 -3 290 -23 403 -84 467 -268 823 -647 1257 -192 218 -401
409 -1095 995 -637 539 -1034 894 -1208 1081 -155 166 -223 311 -224 476 -1
48 1 90 4 93 21 21 318 34 353 16 6 -3 21 -7 35 -9 14 -1 37 -7 52 -13 15 -6
32 -8 37 -4 6 3 11 1 11 -4 0 -6 8 -11 18 -11 10 0 22 -3 26 -7 4 -5 12 -9 17
-9 5 -1 11 -3 14 -4 3 -1 8 -3 13 -4 4 -1 22 -10 40 -19 17 -10 32 -14 32 -10
0 5 4 4 8 -2 4 -5 23 -19 42 -29 19 -10 54 -32 78 -48 24 -15 41 -23 37 -16
-3 7 2 3 11 -9 9 -13 23 -23 30 -23 8 0 14 -5 14 -10 0 -6 8 -14 18 -17 9 -4
22 -12 28 -17 6 -6 30 -27 53 -46 23 -19 70 -62 103 -95 34 -33 65 -59 70 -57
4 1 7 -4 6 -10 -2 -7 3 -12 10 -10 6 1 11 -4 10 -10 -2 -7 3 -12 10 -10 8 1
11 -2 8 -7 -7 -11 42 -67 55 -63 5 1 9 -3 9 -10 0 -20 51 -79 62 -72 7 5 8 2
3 -6 -5 -8 -2 -17 6 -24 8 -6 25 -28 39 -48 14 -21 31 -38 38 -38 7 0 11 -4 8
-9 -3 -4 0 -16 7 -26 12 -16 18 -13 73 33 32 27 79 69 104 92 25 23 67 60 94
83 27 23 57 49 65 58 37 38 156 139 163 139 6 0 1018 886 1136 995 10 9 -9 35
-90 126 -399 445 -754 739 -1106 917 -314 159 -659 255 -962 268 -63 2 -135 6
-160 7 -25 2 -110 0 -190 -4z"/>
</g>
</svg>
